<?xml version="1.0" encoding="utf-8"?>
<!-- Generator: Adobe Illustrator 28.1.0, SVG Export Plug-In . SVG Version: 6.00 Build 0)  -->
<svg version="1.1" id="Layer_1" xmlns="http://www.w3.org/2000/svg" xmlns:xlink="http://www.w3.org/1999/xlink" x="0px" y="0px"
	 viewBox="0 0 250 100" style="enable-background:new 0 0 250 100;" xml:space="preserve">
<style type="text/css">
	.st0{fill:#30BFCE;}
	.st1{fill:none;stroke:#FFFFFF;stroke-miterlimit:10;}
	.st2{fill:#FFFFFF;}
	.st3{fill:#2E3233;}
	.st4{fill:#50BCBD;}
	.st5{fill:#F08162;}
	.st6{opacity:0.1;}
	.st7{fill:#686868;}
</style>
<g>
	<g>
		<path class="st0" d="M39.84,13.28C19.56,13.28,3.11,29.72,3.11,50c0,20.28,16.44,36.72,36.72,36.72
			c20.28,0,36.72-16.44,36.72-36.72C76.55,29.72,60.11,13.28,39.84,13.28z M53.71,36.33c-0.1,0-0.2,0-0.3,0c0,0,0,0,0,0
			c-2.34,0-4.54,0.59-6.45,1.65c-0.1,0.05-0.2,0.11-0.3,0.17c-4.04,2.34-6.78,6.7-6.83,11.71H53.7c0,0.05,0,0.1,0,0.15
			c0,0.05,0,0.1,0,0.15c-0.01,0.95-0.11,1.87-0.3,2.76c-0.81,3.87-3.2,7.16-6.46,9.12c-0.1,0.06-0.2,0.12-0.3,0.18
			c-1.18,0.67-2.48,1.17-3.85,1.47c-0.91,0.2-1.86,0.3-2.83,0.3h-0.13c0,0.25-0.01,0.5-0.03,0.75c-0.05,0.72-0.15,1.43-0.3,2.12
			c-0.41,1.89-1.21,3.63-2.31,5.15c-0.06,0.08-0.12,0.16-0.18,0.24c-2,2.65-4.92,4.56-8.27,5.26c-0.8,0.17-1.64,0.27-2.49,0.29
			c-0.1,0-0.2,0.01-0.3,0.01V63.67h13.56V50.15H25.96c0-0.05,0-0.1,0-0.15c0-0.05,0-0.1,0-0.15c0-1.34,0.1-2.65,0.3-3.93
			c1.24-8.43,6.25-15.64,13.25-19.82c0.1-0.06,0.2-0.12,0.3-0.18c2.7-1.57,5.69-2.69,8.86-3.27c0.7-0.13,1.41-0.23,2.13-0.3
			c0.86-0.08,1.73-0.13,2.6-0.13c0.06,0,0.13,0,0.18,0h0.12V36.33z"/>
		<g>
			<g>
				<path class="st3" d="M88.73,21.5h23.47v6.59H96.33v8.31h13.13v6.13H96.33v14.45h-7.6V21.5z"/>
				<path class="st3" d="M134.6,32.23c1.76,1.4,2.64,3.59,2.64,6.56v18.2h-7.04v-4.61h-0.25c-0.14,0.61-0.52,1.31-1.14,2.1
					c-0.63,0.79-1.55,1.5-2.76,2.1s-2.7,0.91-4.46,0.91c-2.37,0-4.38-0.6-6.03-1.8c-1.66-1.2-2.48-3.03-2.48-5.5
					c0-2.53,0.84-4.34,2.51-5.42c1.67-1.08,3.86-1.77,6.56-2.08l5.07-0.66c1.12-0.13,1.83-0.38,2.15-0.73
					c0.32-0.35,0.48-0.97,0.48-1.85v-0.3c0-1.35-0.35-2.29-1.04-2.81c-0.69-0.52-1.66-0.79-2.92-0.79c-2.87,0-4.31,1.13-4.31,3.4
					v0.25l-7,0.05v-1.01c0-5.41,3.84-8.11,11.51-8.11C130,30.12,132.84,30.82,134.6,32.23z M129.83,45.08
					c-0.2,0.24-0.49,0.41-0.86,0.51c-0.37,0.1-0.93,0.2-1.67,0.3l-3.35,0.51c-1.18,0.2-2.08,0.52-2.69,0.94
					c-0.61,0.42-0.91,1.06-0.91,1.9c0,0.81,0.3,1.5,0.91,2.05c0.61,0.56,1.62,0.84,3.04,0.84c1.22,0,2.24-0.22,3.07-0.66
					c0.83-0.44,1.44-0.99,1.85-1.65c0.41-0.66,0.61-1.31,0.61-1.95V45.08z"/>
				<path class="st3" d="M163.24,31.59c1.76,0.98,3.19,2.5,4.31,4.56c1.12,2.06,1.67,4.61,1.67,7.65c0,3.04-0.56,5.59-1.67,7.65
					c-1.12,2.06-2.55,3.58-4.31,4.56c-1.76,0.98-3.62,1.47-5.58,1.47c-1.86,0-3.49-0.41-4.89-1.24c-1.4-0.83-2.36-1.85-2.86-3.07
					v3.8h-7.4V21.5h7.4v12.93c0.51-1.22,1.46-2.24,2.86-3.07c1.4-0.83,3.03-1.24,4.89-1.24C159.62,30.12,161.48,30.61,163.24,31.59z
					 M160.4,49.41c1.22-1.3,1.82-3.17,1.82-5.6c0-2.43-0.61-4.3-1.82-5.6c-1.22-1.3-2.72-1.95-4.51-1.95
					c-1.76,0-3.24,0.65-4.46,1.95c-1.22,1.3-1.83,3.17-1.83,5.6c0,2.43,0.61,4.3,1.83,5.6s2.7,1.95,4.46,1.95
					C157.68,51.36,159.19,50.71,160.4,49.41z"/>
				<path class="st3" d="M173.23,21.5h7.4v35.48h-7.4V21.5z"/>
				<path class="st3" d="M191.35,56.02c-2.01-0.98-3.63-2.5-4.87-4.56c-1.23-2.06-1.85-4.61-1.85-7.65c0-3.04,0.62-5.59,1.85-7.65
					c1.23-2.06,2.86-3.58,4.87-4.56c2.01-0.98,4.18-1.47,6.51-1.47s4.5,0.49,6.51,1.47c2.01,0.98,3.63,2.5,4.87,4.56
					c1.23,2.06,1.85,4.61,1.85,7.65c0,3.04-0.62,5.59-1.85,7.65c-1.23,2.06-2.86,3.58-4.87,4.56c-2.01,0.98-4.18,1.47-6.51,1.47
					S193.36,57,191.35,56.02z M202.42,49.46c1.15-1.27,1.72-3.15,1.72-5.65c0-2.5-0.57-4.38-1.72-5.65c-1.15-1.27-2.67-1.9-4.56-1.9
					c-1.89,0-3.41,0.63-4.56,1.9c-1.15,1.27-1.72,3.15-1.72,5.65c0,2.5,0.57,4.38,1.72,5.65c1.15,1.27,2.67,1.9,4.56,1.9
					C199.75,51.36,201.27,50.73,202.42,49.46z"/>
				<path class="st3" d="M232.33,30.68v6.23c-0.81-0.1-1.5-0.15-2.08-0.15c-2.23,0-4.08,0.68-5.55,2.05
					c-1.47,1.37-2.2,3.54-2.2,6.51v11.66h-7.4V30.63h7.4v6.39h0.2c0.47-2.03,1.35-3.63,2.64-4.82c1.28-1.18,2.94-1.77,4.97-1.77
					C231.01,30.43,231.69,30.51,232.33,30.68z"/>
			</g>
			<g>
				<path class="st3" d="M109.58,67.29h-3.08v-0.52h6.74v0.52h-3.08v8.82h-0.57V67.29z"/>
				<path class="st3" d="M119.24,69.58c0.42,0.36,0.63,0.95,0.63,1.76v4.76h-0.52v-1.33h-0.03c-0.09,0.2-0.26,0.41-0.5,0.63
					c-0.24,0.23-0.57,0.42-0.97,0.59c-0.41,0.16-0.87,0.25-1.39,0.25c-0.69,0-1.22-0.15-1.61-0.46c-0.39-0.31-0.58-0.75-0.58-1.34
					c0-0.52,0.18-0.95,0.54-1.27c0.36-0.32,0.95-0.54,1.75-0.65l1.52-0.21c0.83-0.13,1.24-0.31,1.24-0.52V71.3
					c0-0.64-0.17-1.1-0.51-1.39c-0.34-0.28-0.86-0.43-1.56-0.43c-1.35,0-2.03,0.5-2.03,1.51v0.15h-0.53v-0.17
					c0-0.66,0.23-1.15,0.69-1.46c0.46-0.32,1.1-0.47,1.91-0.47C118.17,69.04,118.81,69.22,119.24,69.58z M118.04,75.43
					c0.42-0.23,0.74-0.5,0.95-0.81s0.33-0.57,0.33-0.79v-1.56c-0.01,0.2-0.39,0.36-1.15,0.47l-1.51,0.23
					c-0.69,0.09-1.18,0.26-1.45,0.51c-0.27,0.25-0.41,0.56-0.41,0.95c0,0.48,0.16,0.83,0.49,1.04c0.32,0.21,0.74,0.32,1.23,0.32
					C117.12,75.77,117.62,75.66,118.04,75.43z"/>
				<path class="st3" d="M122.79,67.33c-0.09-0.09-0.13-0.19-0.13-0.31c0-0.12,0.04-0.23,0.13-0.31c0.09-0.08,0.19-0.13,0.31-0.13
					c0.13,0,0.23,0.04,0.31,0.13c0.08,0.08,0.13,0.19,0.13,0.31c0,0.12-0.04,0.22-0.13,0.31c-0.08,0.09-0.19,0.13-0.31,0.13
					C122.98,67.46,122.88,67.42,122.79,67.33z M122.83,69.17h0.55v6.94h-0.55V69.17z"/>
				<path class="st3" d="M126.34,66.77h0.55v9.34h-0.55V66.77z"/>
				<path class="st3" d="M131.14,75.83c-0.49-0.27-0.88-0.68-1.18-1.22c-0.3-0.54-0.45-1.2-0.45-1.97c0-0.77,0.15-1.43,0.45-1.97
					c0.3-0.54,0.69-0.95,1.18-1.22c0.49-0.27,1.03-0.41,1.61-0.41c0.59,0,1.13,0.14,1.62,0.41c0.49,0.27,0.89,0.68,1.19,1.22
					c0.3,0.54,0.45,1.2,0.45,1.97c0,0.77-0.15,1.43-0.45,1.97c-0.3,0.54-0.69,0.95-1.19,1.22c-0.49,0.27-1.03,0.41-1.62,0.41
					C132.17,76.24,131.63,76.1,131.14,75.83z M134.09,75.42c0.41-0.23,0.74-0.58,0.99-1.05c0.25-0.47,0.38-1.05,0.38-1.73
					c0-0.68-0.13-1.26-0.38-1.73c-0.25-0.47-0.58-0.82-0.99-1.05c-0.41-0.23-0.85-0.34-1.33-0.34c-0.48,0-0.92,0.11-1.33,0.34
					c-0.41,0.23-0.74,0.58-0.99,1.05c-0.25,0.47-0.37,1.05-0.37,1.73c0,0.69,0.13,1.26,0.37,1.73c0.25,0.47,0.58,0.82,0.99,1.05
					c0.41,0.23,0.85,0.34,1.33,0.34C133.23,75.76,133.68,75.64,134.09,75.42z"/>
				<path class="st3" d="M142,69.18v0.47c-0.13-0.03-0.29-0.04-0.47-0.04c-0.77,0-1.35,0.23-1.75,0.7c-0.4,0.47-0.6,1.07-0.6,1.79v4
					h-0.55v-6.94h0.55v1.48c0.12-0.37,0.36-0.72,0.75-1.05c0.38-0.32,0.9-0.49,1.56-0.49C141.73,69.11,141.9,69.14,142,69.18z"/>
				<path class="st3" d="M149.99,72.8h-5.48c0.01,0.97,0.24,1.71,0.7,2.21c0.46,0.5,1.11,0.75,1.95,0.75c1.16,0,1.92-0.48,2.25-1.43
					h0.52c-0.43,1.27-1.36,1.91-2.79,1.91c-1.01,0-1.79-0.31-2.35-0.92c-0.56-0.61-0.84-1.5-0.84-2.65c0-0.8,0.14-1.47,0.41-2.01
					c0.27-0.54,0.64-0.95,1.11-1.21c0.47-0.27,0.99-0.4,1.58-0.4c0.91,0,1.63,0.29,2.17,0.87c0.54,0.58,0.81,1.39,0.81,2.43
					C150.03,72.55,150.02,72.7,149.99,72.8z M149.51,72.36c-0.01-0.93-0.23-1.64-0.67-2.12c-0.44-0.48-1.03-0.72-1.77-0.72
					c-0.74,0-1.34,0.24-1.81,0.72c-0.47,0.48-0.72,1.19-0.75,2.12H149.51z"/>
				<path class="st3" d="M153.95,75.84c-0.47-0.27-0.85-0.67-1.13-1.21c-0.28-0.54-0.43-1.2-0.43-1.99c0-0.79,0.14-1.46,0.43-1.99
					c0.29-0.54,0.66-0.94,1.13-1.21c0.47-0.27,1-0.4,1.57-0.4c0.59,0,1.12,0.14,1.61,0.43c0.48,0.29,0.86,0.73,1.11,1.31h0.01v-4.01
					h0.55v9.34h-0.55v-1.61h-0.01c-0.26,0.59-0.63,1.03-1.11,1.31c-0.48,0.29-1.02,0.43-1.61,0.43
					C154.95,76.24,154.42,76.11,153.95,75.84z M156.91,75.41c0.41-0.23,0.75-0.58,1-1.05c0.25-0.47,0.38-1.04,0.38-1.72
					c0-0.68-0.13-1.25-0.38-1.72c-0.25-0.47-0.59-0.82-1-1.05c-0.41-0.23-0.86-0.35-1.34-0.35c-0.48,0-0.92,0.12-1.32,0.35
					c-0.4,0.23-0.72,0.58-0.97,1.05c-0.24,0.47-0.37,1.04-0.37,1.73c0,0.69,0.12,1.26,0.37,1.73c0.24,0.47,0.57,0.82,0.97,1.05
					c0.4,0.23,0.84,0.35,1.32,0.35C156.05,75.76,156.49,75.64,156.91,75.41z"/>
				<path class="st3" d="M167.42,67.26c-0.17,0.15-0.25,0.44-0.25,0.87v1.04h1.51v0.47h-1.51v6.47h-0.55v-6.47h-0.93v-0.47h0.93
					v-1.19c0-0.52,0.14-0.89,0.41-1.11c0.27-0.21,0.64-0.32,1.11-0.32h0.57v0.48h-0.41C167.89,67.03,167.59,67.11,167.42,67.26z"/>
				<path class="st3" d="M172.23,75.83c-0.49-0.27-0.88-0.68-1.18-1.22c-0.3-0.54-0.45-1.2-0.45-1.97c0-0.77,0.15-1.43,0.45-1.97
					c0.3-0.54,0.69-0.95,1.18-1.22c0.49-0.27,1.03-0.41,1.61-0.41c0.59,0,1.13,0.14,1.62,0.41c0.49,0.27,0.89,0.68,1.19,1.22
					c0.3,0.54,0.45,1.2,0.45,1.97c0,0.77-0.15,1.43-0.45,1.97c-0.3,0.54-0.69,0.95-1.19,1.22c-0.49,0.27-1.03,0.41-1.62,0.41
					C173.25,76.24,172.71,76.1,172.23,75.83z M175.17,75.42c0.41-0.23,0.74-0.58,0.99-1.05c0.25-0.47,0.38-1.05,0.38-1.73
					c0-0.68-0.13-1.26-0.38-1.73c-0.25-0.47-0.58-0.82-0.99-1.05c-0.41-0.23-0.85-0.34-1.33-0.34c-0.48,0-0.92,0.11-1.33,0.34
					c-0.41,0.23-0.74,0.58-0.99,1.05c-0.25,0.47-0.37,1.05-0.37,1.73c0,0.69,0.13,1.26,0.37,1.73c0.25,0.47,0.58,0.82,0.99,1.05
					c0.41,0.23,0.85,0.34,1.33,0.34C174.32,75.76,174.77,75.64,175.17,75.42z"/>
				<path class="st3" d="M183.08,69.18v0.47c-0.13-0.03-0.29-0.04-0.47-0.04c-0.77,0-1.35,0.23-1.75,0.7
					c-0.4,0.47-0.6,1.07-0.6,1.79v4h-0.55v-6.94h0.55v1.48c0.12-0.37,0.36-0.72,0.75-1.05c0.38-0.32,0.9-0.49,1.56-0.49
					C182.82,69.11,182.99,69.14,183.08,69.18z"/>
				<path class="st3" d="M190.41,78.13c0.7,0,1.22-0.44,1.56-1.31c0.09-0.23,0.13-0.43,0.13-0.59c0-0.07-0.02-0.17-0.05-0.29
					l-2.67-6.78h0.57l2.48,6.39l2.47-6.39h0.57l-3.07,7.8c-0.44,1.11-1.1,1.67-1.97,1.67c-0.08,0-0.19-0.01-0.33-0.03v-0.51
					C190.24,78.12,190.35,78.13,190.41,78.13z"/>
				<path class="st3" d="M198.8,75.83c-0.49-0.27-0.88-0.68-1.18-1.22c-0.3-0.54-0.45-1.2-0.45-1.97c0-0.77,0.15-1.43,0.45-1.97
					c0.3-0.54,0.69-0.95,1.18-1.22c0.49-0.27,1.03-0.41,1.61-0.41c0.59,0,1.13,0.14,1.62,0.41c0.49,0.27,0.89,0.68,1.19,1.22
					c0.3,0.54,0.45,1.2,0.45,1.97c0,0.77-0.15,1.43-0.45,1.97c-0.3,0.54-0.69,0.95-1.19,1.22c-0.49,0.27-1.03,0.41-1.62,0.41
					C199.82,76.24,199.29,76.1,198.8,75.83z M201.75,75.42c0.41-0.23,0.74-0.58,0.99-1.05c0.25-0.47,0.38-1.05,0.38-1.73
					c0-0.68-0.13-1.26-0.38-1.73c-0.25-0.47-0.58-0.82-0.99-1.05c-0.41-0.23-0.85-0.34-1.33-0.34s-0.92,0.11-1.33,0.34
					c-0.41,0.23-0.74,0.58-0.99,1.05c-0.25,0.47-0.37,1.05-0.37,1.73c0,0.69,0.12,1.26,0.37,1.73c0.25,0.47,0.58,0.82,0.99,1.05
					c0.41,0.23,0.85,0.34,1.33,0.34S201.34,75.64,201.75,75.42z"/>
				<path class="st3" d="M211.87,69.17v6.94h-0.55V74.8h-0.03c-0.05,0.17-0.17,0.36-0.35,0.59c-0.18,0.22-0.44,0.42-0.8,0.59
					c-0.36,0.17-0.8,0.26-1.32,0.26c-0.77,0-1.38-0.22-1.84-0.67c-0.46-0.44-0.69-1.17-0.69-2.19v-4.22h0.55v4.14
					c0,0.77,0.17,1.37,0.51,1.8s0.87,0.64,1.59,0.64c0.73,0,1.31-0.22,1.74-0.66c0.43-0.44,0.65-1.03,0.65-1.78v-4.14H211.87z"/>
			</g>
		</g>
	</g>
	<g>
		<g>
			<g>
				<path class="st3" d="M236.47,18.68h-1.41v-0.6h3.51v0.6h-1.41v4h-0.68V18.68z"/>
				<path class="st3" d="M239.76,18.08h0.84l1.54,3.69l1.54-3.69h0.84v4.6h-0.68V19.3h-0.03l-1.4,3.38h-0.54l-1.41-3.38h-0.02v3.38
					h-0.68V18.08z"/>
			</g>
		</g>
		<g>
			<path class="st3" d="M239.78,27.48c-3.92,0-7.1-3.19-7.1-7.1s3.19-7.1,7.1-7.1s7.1,3.19,7.1,7.1S243.7,27.48,239.78,27.48z
				 M239.78,13.78c-3.64,0-6.6,2.96-6.6,6.6s2.96,6.6,6.6,6.6c3.64,0,6.6-2.96,6.6-6.6S243.42,13.78,239.78,13.78z"/>
		</g>
	</g>
</g>
</svg>
