<?xml version="1.0" encoding="utf-8"?>
<!-- Generator: Adobe Illustrator 28.1.0, SVG Export Plug-In . SVG Version: 6.00 Build 0)  -->
<svg version="1.1" id="Layer_1" xmlns="http://www.w3.org/2000/svg" xmlns:xlink="http://www.w3.org/1999/xlink" x="0px" y="0px"
	 viewBox="0 0 500 500" style="enable-background:new 0 0 500 500;" xml:space="preserve">
<style type="text/css">
	.st0{fill:#30BFCE;}
	.st1{fill:none;stroke:#FFFFFF;stroke-miterlimit:10;}
	.st2{fill:#FFFFFF;}
	.st3{fill:#2E3233;}
	.st4{fill:#50BCBD;}
	.st5{fill:#F08162;}
	.st6{opacity:0.1;}
	.st7{fill:#686868;}
</style>
<g>
	<rect class="st2" width="500" height="500"/>
</g>
<g>
	<g>
		<path class="st0" d="M122.31,194.95c-30.41,0-55.06,24.65-55.06,55.06c0,30.4,24.65,55.05,55.06,55.05
			c30.4,0,55.05-24.65,55.05-55.05C177.36,219.6,152.71,194.95,122.31,194.95z M143.11,229.5c-0.15-0.01-0.3-0.01-0.45-0.01
			c0,0,0,0-0.01,0c-3.5,0-6.8,0.89-9.68,2.47c-0.15,0.08-0.3,0.17-0.45,0.25c-6.05,3.5-10.16,10.05-10.25,17.56h20.83
			c0.01,0.07,0.01,0.14,0.01,0.22c0,0.08,0,0.16-0.01,0.23c-0.01,1.42-0.16,2.8-0.45,4.14c-1.21,5.81-4.8,10.74-9.68,13.67
			c-0.15,0.09-0.3,0.18-0.45,0.26c-1.77,1.01-3.72,1.76-5.77,2.2c-1.37,0.3-2.79,0.45-4.24,0.45h-0.19c0,0.38-0.01,0.75-0.04,1.12
			c-0.07,1.08-0.22,2.15-0.45,3.18c-0.62,2.83-1.82,5.45-3.47,7.72c-0.09,0.13-0.18,0.24-0.26,0.36c-2.99,3.97-7.37,6.84-12.41,7.89
			c-1.21,0.26-2.46,0.4-3.74,0.44c-0.15,0.01-0.29,0.01-0.45,0.01V270.5h20.32v-20.27h-20.32c-0.01-0.08-0.01-0.14-0.01-0.23
			c0-0.08,0-0.14,0.01-0.22c0.01-2,0.16-3.97,0.45-5.9c1.85-12.64,9.37-23.45,19.87-29.72c0.15-0.09,0.3-0.18,0.45-0.27
			c4.05-2.35,8.53-4.03,13.29-4.9c1.05-0.19,2.12-0.34,3.19-0.45c1.29-0.13,2.59-0.2,3.91-0.2c0.09-0.01,0.19-0.01,0.28-0.01h0.18
			V229.5z"/>
		<g>
			<g>
				<path class="st3" d="M195.61,207.28h35.19v9.88h-23.79v12.46h19.68v9.2h-19.68v21.66h-11.4V207.28z"/>
				<path class="st3" d="M264.39,223.35c2.63,2.1,3.95,5.38,3.95,9.84v27.28h-10.56v-6.92h-0.38c-0.2,0.91-0.77,1.96-1.71,3.15
					c-0.94,1.19-2.32,2.24-4.14,3.15s-4.05,1.37-6.69,1.37c-3.55,0-6.56-0.9-9.04-2.7c-2.48-1.8-3.72-4.55-3.72-8.25
					c0-3.8,1.25-6.51,3.76-8.13c2.51-1.62,5.79-2.66,9.84-3.12l7.6-0.99c1.67-0.2,2.75-0.57,3.23-1.1c0.48-0.53,0.72-1.46,0.72-2.77
					v-0.46c0-2.03-0.52-3.43-1.56-4.22c-1.04-0.79-2.5-1.18-4.37-1.18c-4.31,0-6.46,1.7-6.46,5.09v0.38l-10.49,0.08v-1.52
					c0-8.11,5.75-12.16,17.25-12.16C257.5,220.2,261.76,221.25,264.39,223.35z M257.25,242.62c-0.3,0.35-0.73,0.61-1.29,0.76
					c-0.56,0.15-1.39,0.3-2.51,0.46l-5.02,0.76c-1.78,0.3-3.12,0.77-4.03,1.41c-0.91,0.63-1.37,1.58-1.37,2.85
					c0,1.22,0.46,2.24,1.37,3.08c0.91,0.84,2.43,1.25,4.56,1.25c1.82,0,3.36-0.33,4.6-0.99c1.24-0.66,2.17-1.48,2.77-2.47
					c0.61-0.99,0.91-1.96,0.91-2.93V242.62z"/>
				<path class="st3" d="M307.33,222.4c2.63,1.47,4.79,3.75,6.46,6.84c1.67,3.09,2.51,6.92,2.51,11.48s-0.84,8.39-2.51,11.48
					c-1.67,3.09-3.83,5.37-6.46,6.84c-2.63,1.47-5.42,2.2-8.36,2.2c-2.79,0-5.23-0.62-7.33-1.86c-2.1-1.24-3.53-2.77-4.29-4.6v5.7
					h-11.1v-53.2h11.1v19.38c0.76-1.82,2.19-3.36,4.29-4.6c2.1-1.24,4.55-1.86,7.33-1.86C301.91,220.2,304.7,220.93,307.33,222.4z
					 M303.08,249.12c1.82-1.95,2.73-4.75,2.73-8.4s-0.91-6.45-2.73-8.4c-1.82-1.95-4.08-2.93-6.77-2.93c-2.63,0-4.86,0.98-6.69,2.93
					c-1.82,1.95-2.74,4.75-2.74,8.4s0.91,6.45,2.74,8.4s4.05,2.93,6.69,2.93C299,252.04,301.25,251.07,303.08,249.12z"/>
				<path class="st3" d="M322.31,207.28h11.1v53.2h-11.1V207.28z"/>
				<path class="st3" d="M349.47,259.03c-3.02-1.47-5.45-3.75-7.3-6.84c-1.85-3.09-2.77-6.92-2.77-11.48s0.92-8.38,2.77-11.48
					c1.85-3.09,4.28-5.37,7.3-6.84c3.01-1.47,6.27-2.2,9.77-2.2s6.75,0.73,9.77,2.2c3.01,1.47,5.45,3.75,7.3,6.84
					c1.85,3.09,2.77,6.92,2.77,11.48s-0.93,8.39-2.77,11.48c-1.85,3.09-4.28,5.37-7.3,6.84c-3.02,1.47-6.27,2.2-9.77,2.2
					S352.49,260.5,349.47,259.03z M366.08,249.19c1.72-1.9,2.58-4.72,2.58-8.47c0-3.75-0.86-6.57-2.58-8.47
					c-1.72-1.9-4-2.85-6.84-2.85c-2.84,0-5.12,0.95-6.84,2.85c-1.72,1.9-2.58,4.72-2.58,8.47c0,3.75,0.86,6.57,2.58,8.47
					c1.72,1.9,4,2.85,6.84,2.85C362.08,252.04,364.36,251.09,366.08,249.19z"/>
				<path class="st3" d="M410.92,221.03v9.35c-1.22-0.15-2.26-0.23-3.12-0.23c-3.34,0-6.12,1.03-8.32,3.08
					c-2.2,2.05-3.3,5.31-3.3,9.77v17.48h-11.1v-39.52h11.1v9.58h0.3c0.71-3.04,2.03-5.45,3.95-7.22c1.92-1.77,4.41-2.66,7.45-2.66
					C408.94,220.65,409.96,220.78,410.92,221.03z"/>
			</g>
			<g>
				<path class="st3" d="M226.89,275.92h-4.62v-0.78h10.1v0.78h-4.62v13.22h-0.86V275.92z"/>
				<path class="st3" d="M241.36,279.36c0.63,0.55,0.95,1.43,0.95,2.64v7.14h-0.78v-2h-0.04c-0.13,0.29-0.38,0.61-0.75,0.95
					c-0.37,0.34-0.85,0.63-1.46,0.88c-0.61,0.25-1.3,0.37-2.09,0.37c-1.03,0-1.83-0.23-2.41-0.69s-0.87-1.13-0.87-2.01
					c0-0.79,0.27-1.42,0.81-1.9c0.54-0.48,1.42-0.81,2.63-0.98l2.28-0.32c1.24-0.2,1.86-0.46,1.86-0.78v-0.72
					c0-0.96-0.25-1.65-0.76-2.08c-0.51-0.43-1.29-0.64-2.34-0.64c-2.03,0-3.04,0.75-3.04,2.26v0.22h-0.8v-0.26
					c0-0.99,0.34-1.72,1.03-2.19c0.69-0.47,1.64-0.71,2.87-0.71C239.75,278.54,240.72,278.81,241.36,279.36z M239.57,288.12
					c0.63-0.35,1.1-0.75,1.43-1.22s0.49-0.86,0.49-1.18v-2.34c-0.01,0.31-0.59,0.54-1.72,0.7l-2.26,0.34
					c-1.04,0.13-1.76,0.39-2.17,0.76s-0.61,0.85-0.61,1.42c0,0.72,0.24,1.24,0.73,1.56c0.49,0.32,1.1,0.48,1.85,0.48
					C238.19,288.64,238.94,288.47,239.57,288.12z"/>
				<path class="st3" d="M246.69,275.98c-0.13-0.13-0.2-0.29-0.2-0.46c0-0.19,0.07-0.34,0.2-0.47c0.13-0.13,0.29-0.19,0.46-0.19
					c0.19,0,0.34,0.06,0.47,0.19s0.19,0.28,0.19,0.47c0,0.17-0.06,0.33-0.19,0.46c-0.13,0.13-0.28,0.2-0.47,0.2
					C246.97,276.18,246.82,276.11,246.69,275.98z M246.75,278.74h0.82v10.4h-0.82V278.74z"/>
				<path class="st3" d="M252.01,275.14h0.82v14h-0.82V275.14z"/>
				<path class="st3" d="M259.21,288.73c-0.73-0.41-1.32-1.02-1.77-1.83c-0.45-0.81-0.67-1.8-0.67-2.96s0.22-2.15,0.67-2.96
					c0.45-0.81,1.04-1.42,1.77-1.83c0.73-0.41,1.54-0.61,2.42-0.61c0.88,0,1.69,0.2,2.43,0.61c0.74,0.41,1.33,1.02,1.78,1.83
					c0.45,0.81,0.67,1.8,0.67,2.96s-0.22,2.15-0.67,2.96c-0.45,0.81-1.04,1.42-1.78,1.83c-0.74,0.41-1.55,0.61-2.43,0.61
					C260.75,289.34,259.94,289.14,259.21,288.73z M263.63,288.11c0.61-0.34,1.11-0.86,1.49-1.57c0.38-0.71,0.57-1.57,0.57-2.6
					c0-1.03-0.19-1.89-0.57-2.6s-0.88-1.23-1.49-1.57s-1.28-0.51-2-0.51c-0.72,0-1.39,0.17-2,0.51s-1.11,0.86-1.48,1.57
					s-0.56,1.57-0.56,2.6c0,1.03,0.19,1.89,0.56,2.6c0.37,0.71,0.87,1.23,1.48,1.57s1.28,0.51,2,0.51
					C262.35,288.62,263.01,288.45,263.63,288.11z"/>
				<path class="st3" d="M275.49,278.76v0.7c-0.2-0.04-0.43-0.06-0.7-0.06c-1.15,0-2.02,0.35-2.62,1.05c-0.6,0.7-0.9,1.6-0.9,2.69v6
					h-0.82v-10.4h0.82v2.22c0.17-0.56,0.55-1.08,1.12-1.57c0.57-0.49,1.35-0.73,2.34-0.73
					C275.09,278.66,275.34,278.69,275.49,278.76z"/>
				<path class="st3" d="M287.47,284.18h-8.22c0.01,1.45,0.36,2.56,1.05,3.31c0.69,0.75,1.66,1.13,2.93,1.13
					c1.75,0,2.87-0.71,3.38-2.14h0.78c-0.64,1.91-2.03,2.86-4.18,2.86c-1.51,0-2.68-0.46-3.52-1.38s-1.26-2.25-1.26-3.98
					c0-1.2,0.2-2.21,0.61-3.02c0.41-0.81,0.96-1.42,1.66-1.82s1.49-0.6,2.37-0.6c1.36,0,2.44,0.44,3.25,1.31s1.21,2.09,1.21,3.65
					C287.53,283.81,287.51,284.03,287.47,284.18z M286.75,283.52c-0.01-1.4-0.35-2.46-1.01-3.18s-1.54-1.08-2.65-1.08
					c-1.11,0-2.01,0.36-2.71,1.08s-1.08,1.78-1.13,3.18H286.75z"/>
				<path class="st3" d="M293.41,288.74c-0.71-0.4-1.27-1.01-1.7-1.82c-0.43-0.81-0.64-1.81-0.64-2.98c0-1.19,0.21-2.18,0.64-2.99
					c0.43-0.81,0.99-1.41,1.7-1.81c0.71-0.4,1.49-0.6,2.36-0.6c0.88,0,1.68,0.22,2.41,0.65c0.73,0.43,1.28,1.09,1.67,1.97h0.02
					v-6.02h0.82v14h-0.82v-2.42h-0.02c-0.39,0.88-0.94,1.54-1.67,1.97c-0.73,0.43-1.53,0.65-2.41,0.65
					C294.9,289.34,294.11,289.14,293.41,288.74z M297.84,288.1c0.62-0.35,1.12-0.87,1.5-1.58c0.38-0.71,0.57-1.57,0.57-2.58
					c0-1.01-0.19-1.87-0.57-2.58c-0.38-0.71-0.88-1.23-1.5-1.58c-0.62-0.35-1.29-0.52-2.01-0.52c-0.72,0-1.38,0.17-1.98,0.52
					c-0.6,0.35-1.08,0.87-1.45,1.57s-0.55,1.56-0.55,2.59c0,1.03,0.18,1.89,0.55,2.59c0.37,0.7,0.85,1.22,1.45,1.57
					s1.26,0.52,1.98,0.52C296.55,288.62,297.22,288.45,297.84,288.1z"/>
				<path class="st3" d="M313.61,275.88c-0.25,0.23-0.38,0.66-0.38,1.3v1.56h2.26v0.7h-2.26v9.7h-0.82v-9.7h-1.4v-0.7h1.4v-1.78
					c0-0.79,0.2-1.34,0.61-1.66s0.96-0.48,1.67-0.48h0.86v0.72h-0.62C314.3,275.54,313.86,275.65,313.61,275.88z"/>
				<path class="st3" d="M320.81,288.73c-0.73-0.41-1.32-1.02-1.77-1.83c-0.45-0.81-0.67-1.8-0.67-2.96s0.22-2.15,0.67-2.96
					c0.45-0.81,1.04-1.42,1.77-1.83c0.73-0.41,1.54-0.61,2.42-0.61c0.88,0,1.69,0.2,2.43,0.61c0.74,0.41,1.33,1.02,1.78,1.83
					c0.45,0.81,0.67,1.8,0.67,2.96s-0.22,2.15-0.67,2.96c-0.45,0.81-1.04,1.42-1.78,1.83c-0.74,0.41-1.55,0.61-2.43,0.61
					C322.35,289.34,321.54,289.14,320.81,288.73z M325.23,288.11c0.61-0.34,1.11-0.86,1.49-1.57c0.38-0.71,0.57-1.57,0.57-2.6
					c0-1.03-0.19-1.89-0.57-2.6s-0.88-1.23-1.49-1.57s-1.28-0.51-2-0.51c-0.72,0-1.39,0.17-2,0.51s-1.11,0.86-1.48,1.57
					s-0.56,1.57-0.56,2.6c0,1.03,0.19,1.89,0.56,2.6c0.37,0.71,0.87,1.23,1.48,1.57s1.28,0.51,2,0.51
					C323.95,288.62,324.61,288.45,325.23,288.11z"/>
				<path class="st3" d="M337.09,278.76v0.7c-0.2-0.04-0.43-0.06-0.7-0.06c-1.15,0-2.02,0.35-2.62,1.05c-0.6,0.7-0.9,1.6-0.9,2.69v6
					h-0.82v-10.4h0.82v2.22c0.17-0.56,0.55-1.08,1.12-1.57c0.57-0.49,1.35-0.73,2.34-0.73
					C336.69,278.66,336.94,278.69,337.09,278.76z"/>
				<path class="st3" d="M348.07,292.18c1.05,0,1.83-0.65,2.34-1.96c0.13-0.35,0.2-0.64,0.2-0.88c0-0.11-0.03-0.25-0.08-0.44
					l-4-10.16h0.86l3.72,9.58l3.7-9.58h0.86l-4.6,11.7c-0.67,1.67-1.65,2.5-2.96,2.5c-0.12,0-0.29-0.01-0.5-0.04v-0.76
					C347.82,292.17,347.97,292.18,348.07,292.18z"/>
				<path class="st3" d="M360.65,288.73c-0.73-0.41-1.32-1.02-1.77-1.83c-0.45-0.81-0.67-1.8-0.67-2.96s0.22-2.15,0.67-2.96
					c0.45-0.81,1.04-1.42,1.77-1.83c0.73-0.41,1.54-0.61,2.42-0.61s1.69,0.2,2.43,0.61c0.74,0.41,1.33,1.02,1.78,1.83
					c0.45,0.81,0.67,1.8,0.67,2.96s-0.22,2.15-0.67,2.96c-0.45,0.81-1.04,1.42-1.78,1.83c-0.74,0.41-1.55,0.61-2.43,0.61
					S361.38,289.14,360.65,288.73z M365.07,288.11c0.61-0.34,1.11-0.86,1.49-1.57c0.38-0.71,0.57-1.57,0.57-2.6
					c0-1.03-0.19-1.89-0.57-2.6c-0.38-0.71-0.88-1.23-1.49-1.57s-1.28-0.51-2-0.51s-1.39,0.17-2,0.51s-1.11,0.86-1.48,1.57
					c-0.37,0.71-0.56,1.57-0.56,2.6c0,1.03,0.19,1.89,0.56,2.6c0.37,0.71,0.87,1.23,1.48,1.57s1.28,0.51,2,0.51
					S364.45,288.45,365.07,288.11z"/>
				<path class="st3" d="M380.25,278.74v10.4h-0.82v-1.96h-0.04c-0.08,0.25-0.25,0.55-0.52,0.88c-0.27,0.33-0.67,0.63-1.2,0.89
					c-0.53,0.26-1.19,0.39-1.98,0.39c-1.15,0-2.07-0.33-2.76-1s-1.04-1.76-1.04-3.28v-6.32h0.82v6.2c0,1.16,0.25,2.06,0.76,2.7
					s1.3,0.96,2.38,0.96c1.09,0,1.96-0.33,2.61-0.99s0.97-1.55,0.97-2.67v-6.2H380.25z"/>
			</g>
		</g>
	</g>
	<g>
		<g>
			<g>
				<path class="st3" d="M417.12,203.04h-2.12v-0.9h5.26v0.9h-2.12v6h-1.02V203.04z"/>
				<path class="st3" d="M422.06,202.15h1.26l2.3,5.53l2.3-5.53h1.26v6.89h-1.02v-5.06h-0.04l-2.1,5.06h-0.81l-2.11-5.06h-0.03v5.06
					h-1.02V202.15z"/>
			</g>
		</g>
		<g>
			<path class="st3" d="M422.1,216.24c-5.87,0-10.65-4.78-10.65-10.65s4.78-10.65,10.65-10.65s10.65,4.78,10.65,10.65
				S427.97,216.24,422.1,216.24z M422.1,195.7c-5.46,0-9.9,4.44-9.9,9.9s4.44,9.9,9.9,9.9c5.46,0,9.9-4.44,9.9-9.9
				S427.55,195.7,422.1,195.7z"/>
		</g>
	</g>
</g>
</svg>
